<mxfile host="app.diagrams.net" agent="Mozilla/5.0 (X11; Linux x86_64) AppleWebKit/537.36 (KHTML, like Gecko) Chrome/130.0.0.0 Safari/537.36" version="24.8.4" pages="2">
  <diagram name="Page-1" id="X9QvG4u3iI25r8UtIQJN">
    <mxGraphModel dx="593" dy="517" grid="1" gridSize="10" guides="1" tooltips="1" connect="1" arrows="1" fold="1" page="1" pageScale="1" pageWidth="1600" pageHeight="900" math="0" shadow="0">
      <root>
        <mxCell id="0" />
        <mxCell id="1" parent="0" />
        <mxCell id="t6Gh8kv-kjOiG83hikIO-46" value="&lt;font style=&quot;font-size: 8px;&quot;&gt;IMG-202411091858.jpg&lt;/font&gt;" style="rounded=1;whiteSpace=wrap;html=1;align=center;fontFamily=Source Sans 3;fontSource=https%3A%2F%2Ffonts.googleapis.com%2Fcss%3Ffamily%3DSource%2BSans%2B3;" vertex="1" parent="1">
          <mxGeometry x="850" y="400" width="130" height="30" as="geometry" />
        </mxCell>
        <mxCell id="t6Gh8kv-kjOiG83hikIO-1" value="" style="verticalLabelPosition=bottom;verticalAlign=top;html=1;shadow=0;dashed=0;strokeWidth=1;shape=mxgraph.android.phone2;strokeColor=#000000;fontFamily=Source Sans 3;fontSource=https%3A%2F%2Ffonts.googleapis.com%2Fcss%3Ffamily%3DSource%2BSans%2B3;" vertex="1" parent="1">
          <mxGeometry x="40" y="130" width="200" height="390" as="geometry" />
        </mxCell>
        <mxCell id="t6Gh8kv-kjOiG83hikIO-2" value="Úvodná obrazovka" style="text;html=1;align=center;verticalAlign=middle;resizable=0;points=[];autosize=1;strokeColor=none;fillColor=none;fontFamily=Source Sans 3;fontSource=https%3A%2F%2Ffonts.googleapis.com%2Fcss%3Ffamily%3DSource%2BSans%2B3;" vertex="1" parent="1">
          <mxGeometry x="85" y="100" width="110" height="30" as="geometry" />
        </mxCell>
        <mxCell id="t6Gh8kv-kjOiG83hikIO-7" value="&lt;b&gt;&lt;font style=&quot;font-size: 16px;&quot;&gt;KMS&lt;/font&gt;&lt;/b&gt;" style="text;html=1;align=center;verticalAlign=middle;resizable=0;points=[];autosize=1;strokeColor=none;fillColor=none;fontFamily=Source Sans 3;fontSource=https%3A%2F%2Ffonts.googleapis.com%2Fcss%3Ffamily%3DSource%2BSans%2B3;" vertex="1" parent="1">
          <mxGeometry x="40" y="170" width="60" height="30" as="geometry" />
        </mxCell>
        <mxCell id="t6Gh8kv-kjOiG83hikIO-8" value="" style="edgeStyle=none;orthogonalLoop=1;jettySize=auto;html=1;rounded=0;endArrow=none;endFill=0;exitX=0.039;exitY=0.179;exitDx=0;exitDy=0;exitPerimeter=0;entryX=0.966;entryY=0.177;entryDx=0;entryDy=0;entryPerimeter=0;fontFamily=Source Sans 3;fontSource=https%3A%2F%2Ffonts.googleapis.com%2Fcss%3Ffamily%3DSource%2BSans%2B3;" edge="1" parent="1" source="t6Gh8kv-kjOiG83hikIO-1" target="t6Gh8kv-kjOiG83hikIO-1">
          <mxGeometry width="100" relative="1" as="geometry">
            <mxPoint x="50" y="200" as="sourcePoint" />
            <mxPoint x="230" y="199" as="targetPoint" />
            <Array as="points" />
          </mxGeometry>
        </mxCell>
        <mxCell id="t6Gh8kv-kjOiG83hikIO-11" value="&lt;h1 style=&quot;margin-top: 0px; font-size: 16px;&quot;&gt;&lt;font style=&quot;font-size: 16px;&quot;&gt;Korešpondenčný matematický seminár&lt;/font&gt;&lt;/h1&gt;" style="text;html=1;whiteSpace=wrap;overflow=hidden;rounded=0;fontFamily=Source Sans 3;fontSource=https%3A%2F%2Ffonts.googleapis.com%2Fcss%3Ffamily%3DSource%2BSans%2B3;" vertex="1" parent="1">
          <mxGeometry x="50" y="200" width="180" height="120" as="geometry" />
        </mxCell>
        <mxCell id="t6Gh8kv-kjOiG83hikIO-12" value="Aktuálne zadania" style="rounded=1;fillColor=#0057D8;strokeColor=none;html=1;whiteSpace=wrap;fontColor=#ffffff;align=center;verticalAlign=middle;fontStyle=0;fontSize=12;sketch=0;fontFamily=Source Sans 3;fontSource=https%3A%2F%2Ffonts.googleapis.com%2Fcss%3Ffamily%3DSource%2BSans%2B3;" vertex="1" parent="1">
          <mxGeometry x="55" y="270" width="140" height="33" as="geometry" />
        </mxCell>
        <mxCell id="t6Gh8kv-kjOiG83hikIO-13" value="" style="verticalLabelPosition=bottom;verticalAlign=top;html=1;shadow=0;dashed=0;strokeWidth=1;shape=mxgraph.android.phone2;strokeColor=#000000;fontFamily=Source Sans 3;fontSource=https%3A%2F%2Ffonts.googleapis.com%2Fcss%3Ffamily%3DSource%2BSans%2B3;" vertex="1" parent="1">
          <mxGeometry x="300" y="130" width="200" height="390" as="geometry" />
        </mxCell>
        <mxCell id="t6Gh8kv-kjOiG83hikIO-14" value="Zoznam zadaní" style="text;html=1;align=center;verticalAlign=middle;resizable=0;points=[];autosize=1;strokeColor=none;fillColor=none;fontFamily=Source Sans 3;fontSource=https%3A%2F%2Ffonts.googleapis.com%2Fcss%3Ffamily%3DSource%2BSans%2B3;" vertex="1" parent="1">
          <mxGeometry x="350" y="100" width="100" height="30" as="geometry" />
        </mxCell>
        <mxCell id="t6Gh8kv-kjOiG83hikIO-15" value="&lt;b&gt;&lt;font style=&quot;font-size: 16px;&quot;&gt;KMS&lt;/font&gt;&lt;/b&gt;" style="text;html=1;align=center;verticalAlign=middle;resizable=0;points=[];autosize=1;strokeColor=none;fillColor=none;fontFamily=Source Sans 3;fontSource=https%3A%2F%2Ffonts.googleapis.com%2Fcss%3Ffamily%3DSource%2BSans%2B3;" vertex="1" parent="1">
          <mxGeometry x="300" y="170" width="60" height="30" as="geometry" />
        </mxCell>
        <mxCell id="t6Gh8kv-kjOiG83hikIO-16" value="" style="edgeStyle=none;orthogonalLoop=1;jettySize=auto;html=1;rounded=0;endArrow=none;endFill=0;exitX=0.039;exitY=0.179;exitDx=0;exitDy=0;exitPerimeter=0;entryX=0.966;entryY=0.177;entryDx=0;entryDy=0;entryPerimeter=0;fontFamily=Source Sans 3;fontSource=https%3A%2F%2Ffonts.googleapis.com%2Fcss%3Ffamily%3DSource%2BSans%2B3;" edge="1" source="t6Gh8kv-kjOiG83hikIO-13" target="t6Gh8kv-kjOiG83hikIO-13" parent="1">
          <mxGeometry width="100" relative="1" as="geometry">
            <mxPoint x="310" y="200" as="sourcePoint" />
            <mxPoint x="490" y="199" as="targetPoint" />
            <Array as="points" />
          </mxGeometry>
        </mxCell>
        <mxCell id="t6Gh8kv-kjOiG83hikIO-17" value="&lt;h1 style=&quot;margin-top: 0px;&quot;&gt;&lt;font style=&quot;font-size: 13px;&quot;&gt;1. kolo, 1. časť, 46. ročník KMS&lt;/font&gt;&lt;/h1&gt;" style="text;html=1;whiteSpace=wrap;overflow=hidden;rounded=0;fontFamily=Source Sans 3;fontSource=https%3A%2F%2Ffonts.googleapis.com%2Fcss%3Ffamily%3DSource%2BSans%2B3;" vertex="1" parent="1">
          <mxGeometry x="310" y="200" width="180" height="50" as="geometry" />
        </mxCell>
        <mxCell id="t6Gh8kv-kjOiG83hikIO-19" style="edgeStyle=orthogonalEdgeStyle;rounded=0;orthogonalLoop=1;jettySize=auto;html=1;entryX=-0.006;entryY=0.402;entryDx=0;entryDy=0;entryPerimeter=0;fontFamily=Source Sans 3;fontSource=https%3A%2F%2Ffonts.googleapis.com%2Fcss%3Ffamily%3DSource%2BSans%2B3;" edge="1" parent="1" source="t6Gh8kv-kjOiG83hikIO-12" target="t6Gh8kv-kjOiG83hikIO-13">
          <mxGeometry relative="1" as="geometry" />
        </mxCell>
        <mxCell id="t6Gh8kv-kjOiG83hikIO-20" value="" style="swimlane;fontStyle=0;childLayout=stackLayout;horizontal=1;startSize=0;horizontalStack=0;resizeParent=1;resizeParentMax=0;resizeLast=0;collapsible=0;marginBottom=0;whiteSpace=wrap;html=1;strokeColor=none;fillColor=none;fontFamily=Source Sans 3;fontSource=https%3A%2F%2Ffonts.googleapis.com%2Fcss%3Ffamily%3DSource%2BSans%2B3;" vertex="1" parent="1">
          <mxGeometry x="310" y="250" width="180" height="120" as="geometry" />
        </mxCell>
        <mxCell id="t6Gh8kv-kjOiG83hikIO-21" value="&lt;b&gt;#&amp;nbsp; Názov&lt;span style=&quot;white-space: pre;&quot;&gt;&#x9;&lt;/span&gt;&lt;span style=&quot;white-space: pre;&quot;&gt;&#x9;&lt;/span&gt;&lt;span style=&quot;white-space: pre;&quot;&gt;&#x9;&lt;/span&gt;&lt;span style=&quot;white-space: pre;&quot;&gt;&#x9;&lt;/span&gt;Body&lt;/b&gt;" style="text;strokeColor=#DFDFDF;fillColor=#FFFFFF;align=left;verticalAlign=middle;spacingLeft=10;spacingRight=10;overflow=hidden;points=[[0,0.5],[1,0.5]];portConstraint=eastwest;rotatable=0;whiteSpace=wrap;html=1;shape=mxgraph.bootstrap.topButton;rSize=5;fontColor=#333333;fontFamily=Source Sans 3;fontSource=https%3A%2F%2Ffonts.googleapis.com%2Fcss%3Ffamily%3DSource%2BSans%2B3;" vertex="1" parent="t6Gh8kv-kjOiG83hikIO-20">
          <mxGeometry width="180" height="30" as="geometry" />
        </mxCell>
        <mxCell id="t6Gh8kv-kjOiG83hikIO-22" value="1&amp;nbsp; Úloha 1&lt;span style=&quot;white-space: pre;&quot;&gt;&#x9;&lt;/span&gt;&lt;span style=&quot;white-space: pre;&quot;&gt;&#x9;&lt;/span&gt;&lt;span style=&quot;white-space: pre;&quot;&gt;&#x9;&lt;/span&gt;0/20" style="text;strokeColor=#DFDFDF;fillColor=#BBBBBB;align=left;verticalAlign=middle;spacingLeft=10;spacingRight=10;overflow=hidden;points=[[0,0.5],[1,0.5]];portConstraint=eastwest;rotatable=0;whiteSpace=wrap;html=1;rSize=5;fontColor=#333333;fontFamily=Source Sans 3;fontSource=https%3A%2F%2Ffonts.googleapis.com%2Fcss%3Ffamily%3DSource%2BSans%2B3;" vertex="1" parent="t6Gh8kv-kjOiG83hikIO-20">
          <mxGeometry y="30" width="180" height="30" as="geometry" />
        </mxCell>
        <mxCell id="t6Gh8kv-kjOiG83hikIO-23" value="2&amp;nbsp; Úloha 2&lt;span style=&quot;white-space: pre;&quot;&gt;&#x9;&lt;/span&gt;&lt;span style=&quot;white-space: pre;&quot;&gt;&#x9;&lt;/span&gt;&lt;span style=&quot;white-space: pre;&quot;&gt;&#x9;&lt;/span&gt;0/20" style="text;strokeColor=#DFDFDF;fillColor=#FFFFFF;align=left;verticalAlign=middle;spacingLeft=10;spacingRight=10;overflow=hidden;points=[[0,0.5],[1,0.5]];portConstraint=eastwest;rotatable=0;whiteSpace=wrap;html=1;shape=mxgraph.bootstrap.bottomButton;rSize=5;fontColor=#333333;fontFamily=Source Sans 3;fontSource=https%3A%2F%2Ffonts.googleapis.com%2Fcss%3Ffamily%3DSource%2BSans%2B3;" vertex="1" parent="t6Gh8kv-kjOiG83hikIO-20">
          <mxGeometry y="60" width="180" height="30" as="geometry" />
        </mxCell>
        <mxCell id="t6Gh8kv-kjOiG83hikIO-24" value="3&amp;nbsp; Úloha 3&lt;span style=&quot;white-space: pre;&quot;&gt;&#x9;&lt;/span&gt;&lt;span style=&quot;white-space: pre;&quot;&gt;&#x9;&lt;/span&gt;&lt;span style=&quot;white-space: pre;&quot;&gt;&#x9;&lt;/span&gt;?/20" style="text;strokeColor=#DFDFDF;fillColor=#A6FFAC;align=left;verticalAlign=middle;spacingLeft=10;spacingRight=10;overflow=hidden;points=[[0,0.5],[1,0.5]];portConstraint=eastwest;rotatable=0;whiteSpace=wrap;html=1;shape=mxgraph.bootstrap.bottomButton;rSize=5;fontColor=#333333;fontFamily=Source Sans 3;fontSource=https%3A%2F%2Ffonts.googleapis.com%2Fcss%3Ffamily%3DSource%2BSans%2B3;" vertex="1" parent="t6Gh8kv-kjOiG83hikIO-20">
          <mxGeometry y="90" width="180" height="30" as="geometry" />
        </mxCell>
        <mxCell id="t6Gh8kv-kjOiG83hikIO-25" value="" style="verticalLabelPosition=bottom;verticalAlign=top;html=1;shadow=0;dashed=0;strokeWidth=1;shape=mxgraph.android.phone2;strokeColor=#000000;fontFamily=Source Sans 3;fontSource=https%3A%2F%2Ffonts.googleapis.com%2Fcss%3Ffamily%3DSource%2BSans%2B3;" vertex="1" parent="1">
          <mxGeometry x="570" y="130" width="200" height="390" as="geometry" />
        </mxCell>
        <mxCell id="t6Gh8kv-kjOiG83hikIO-26" value="Detail zadania" style="text;html=1;align=center;verticalAlign=middle;resizable=0;points=[];autosize=1;strokeColor=none;fillColor=none;fontFamily=Source Sans 3;fontSource=https%3A%2F%2Ffonts.googleapis.com%2Fcss%3Ffamily%3DSource%2BSans%2B3;" vertex="1" parent="1">
          <mxGeometry x="625" y="100" width="90" height="30" as="geometry" />
        </mxCell>
        <mxCell id="t6Gh8kv-kjOiG83hikIO-27" value="&lt;b&gt;&lt;font style=&quot;font-size: 16px;&quot;&gt;KMS&lt;/font&gt;&lt;/b&gt;" style="text;html=1;align=center;verticalAlign=middle;resizable=0;points=[];autosize=1;strokeColor=none;fillColor=none;fontFamily=Source Sans 3;fontSource=https%3A%2F%2Ffonts.googleapis.com%2Fcss%3Ffamily%3DSource%2BSans%2B3;" vertex="1" parent="1">
          <mxGeometry x="570" y="170" width="60" height="30" as="geometry" />
        </mxCell>
        <mxCell id="t6Gh8kv-kjOiG83hikIO-28" value="" style="edgeStyle=none;orthogonalLoop=1;jettySize=auto;html=1;rounded=0;endArrow=none;endFill=0;exitX=0.039;exitY=0.179;exitDx=0;exitDy=0;exitPerimeter=0;entryX=0.966;entryY=0.177;entryDx=0;entryDy=0;entryPerimeter=0;fontFamily=Source Sans 3;fontSource=https%3A%2F%2Ffonts.googleapis.com%2Fcss%3Ffamily%3DSource%2BSans%2B3;" edge="1" source="t6Gh8kv-kjOiG83hikIO-25" target="t6Gh8kv-kjOiG83hikIO-25" parent="1">
          <mxGeometry width="100" relative="1" as="geometry">
            <mxPoint x="580" y="200" as="sourcePoint" />
            <mxPoint x="760" y="199" as="targetPoint" />
            <Array as="points" />
          </mxGeometry>
        </mxCell>
        <mxCell id="t6Gh8kv-kjOiG83hikIO-29" value="&lt;h1 style=&quot;margin-top: 0px; line-height: 50%;&quot;&gt;&lt;font style=&quot;&quot;&gt;&lt;span style=&quot;font-size: 16px;&quot;&gt;Úloha 2&lt;/span&gt;&lt;br&gt;&lt;span style=&quot;color: rgb(55, 65, 81); font-weight: 400; text-align: justify;&quot;&gt;&lt;font style=&quot;font-size: 8px;&quot;&gt;Lorem ipsum dolor sit amet, consectetur adipisicing elit. Aspernatur earum impedit laboriosam nam necessitatibus quas temporibus veritatis. Aliquid animi asperiores.&lt;/font&gt;&lt;/span&gt;&lt;/font&gt;&lt;/h1&gt;" style="text;html=1;whiteSpace=wrap;overflow=hidden;rounded=0;fontFamily=Source Sans 3;fontSource=https%3A%2F%2Ffonts.googleapis.com%2Fcss%3Ffamily%3DSource%2BSans%2B3;" vertex="1" parent="1">
          <mxGeometry x="580" y="200" width="180" height="120" as="geometry" />
        </mxCell>
        <mxCell id="t6Gh8kv-kjOiG83hikIO-30" value="Späť" style="rounded=1;fillColor=#0057D8;strokeColor=none;html=1;whiteSpace=wrap;fontColor=#ffffff;align=center;verticalAlign=middle;fontStyle=0;fontSize=12;sketch=0;fontFamily=Source Sans 3;fontSource=https%3A%2F%2Ffonts.googleapis.com%2Fcss%3Ffamily%3DSource%2BSans%2B3;" vertex="1" parent="1">
          <mxGeometry x="710" y="175" width="45" height="20" as="geometry" />
        </mxCell>
        <mxCell id="t6Gh8kv-kjOiG83hikIO-31" style="edgeStyle=orthogonalEdgeStyle;rounded=0;orthogonalLoop=1;jettySize=auto;html=1;entryX=0;entryY=0.5;entryDx=0;entryDy=0;entryPerimeter=0;fontFamily=Source Sans 3;fontSource=https%3A%2F%2Ffonts.googleapis.com%2Fcss%3Ffamily%3DSource%2BSans%2B3;" edge="1" parent="1" source="t6Gh8kv-kjOiG83hikIO-23" target="t6Gh8kv-kjOiG83hikIO-25">
          <mxGeometry relative="1" as="geometry" />
        </mxCell>
        <mxCell id="t6Gh8kv-kjOiG83hikIO-35" value="&lt;h1 style=&quot;margin-top: 0px; line-height: 30%;&quot;&gt;&lt;span style=&quot;&quot;&gt;&lt;font style=&quot;font-size: 10px;&quot; color=&quot;#000000&quot;&gt;Odovzdanie&lt;/font&gt;&lt;/span&gt;&lt;/h1&gt;" style="html=1;whiteSpace=wrap;strokeColor=none;fillColor=#BBBBBB;labelPosition=center;verticalLabelPosition=middle;verticalAlign=top;align=left;fontSize=12;outlineConnect=0;spacingTop=-6;fontColor=#FFFFFF;sketch=0;shape=mxgraph.sitemap.upload;fontFamily=Source Sans 3;fontSource=https%3A%2F%2Ffonts.googleapis.com%2Fcss%3Ffamily%3DSource%2BSans%2B3;" vertex="1" parent="1">
          <mxGeometry x="580" y="320" width="180" height="70" as="geometry" />
        </mxCell>
        <mxCell id="t6Gh8kv-kjOiG83hikIO-36" value="" style="verticalLabelPosition=bottom;verticalAlign=top;html=1;shadow=0;dashed=0;strokeWidth=1;shape=mxgraph.android.phone2;strokeColor=#000000;fontFamily=Source Sans 3;fontSource=https%3A%2F%2Ffonts.googleapis.com%2Fcss%3Ffamily%3DSource%2BSans%2B3;" vertex="1" parent="1">
          <mxGeometry x="840" y="130" width="200" height="390" as="geometry" />
        </mxCell>
        <mxCell id="t6Gh8kv-kjOiG83hikIO-37" value="&lt;b&gt;&lt;font style=&quot;font-size: 16px;&quot;&gt;KMS&lt;/font&gt;&lt;/b&gt;" style="text;html=1;align=center;verticalAlign=middle;resizable=0;points=[];autosize=1;strokeColor=none;fillColor=none;fontFamily=Source Sans 3;fontSource=https%3A%2F%2Ffonts.googleapis.com%2Fcss%3Ffamily%3DSource%2BSans%2B3;" vertex="1" parent="1">
          <mxGeometry x="840" y="170" width="60" height="30" as="geometry" />
        </mxCell>
        <mxCell id="t6Gh8kv-kjOiG83hikIO-38" value="" style="edgeStyle=none;orthogonalLoop=1;jettySize=auto;html=1;rounded=0;endArrow=none;endFill=0;exitX=0.039;exitY=0.179;exitDx=0;exitDy=0;exitPerimeter=0;entryX=0.966;entryY=0.177;entryDx=0;entryDy=0;entryPerimeter=0;fontFamily=Source Sans 3;fontSource=https%3A%2F%2Ffonts.googleapis.com%2Fcss%3Ffamily%3DSource%2BSans%2B3;" edge="1" source="t6Gh8kv-kjOiG83hikIO-36" target="t6Gh8kv-kjOiG83hikIO-36" parent="1">
          <mxGeometry width="100" relative="1" as="geometry">
            <mxPoint x="850" y="200" as="sourcePoint" />
            <mxPoint x="1030" y="199" as="targetPoint" />
            <Array as="points" />
          </mxGeometry>
        </mxCell>
        <mxCell id="t6Gh8kv-kjOiG83hikIO-39" value="&lt;h1 style=&quot;margin-top: 0px; line-height: 50%;&quot;&gt;&lt;font style=&quot;&quot;&gt;&lt;span style=&quot;font-size: 16px;&quot;&gt;Úloha 2&lt;/span&gt;&lt;br&gt;&lt;span style=&quot;color: rgb(55, 65, 81); font-weight: 400; text-align: justify;&quot;&gt;&lt;font style=&quot;font-size: 8px;&quot;&gt;Lorem ipsum dolor sit amet, consectetur adipisicing elit. Aspernatur earum impedit laboriosam nam necessitatibus quas temporibus veritatis. Aliquid animi asperiores.&lt;/font&gt;&lt;/span&gt;&lt;/font&gt;&lt;/h1&gt;" style="text;html=1;whiteSpace=wrap;overflow=hidden;rounded=0;fontFamily=Source Sans 3;fontSource=https%3A%2F%2Ffonts.googleapis.com%2Fcss%3Ffamily%3DSource%2BSans%2B3;" vertex="1" parent="1">
          <mxGeometry x="850" y="200" width="180" height="120" as="geometry" />
        </mxCell>
        <mxCell id="t6Gh8kv-kjOiG83hikIO-40" value="Späť" style="rounded=1;fillColor=#0057D8;strokeColor=none;html=1;whiteSpace=wrap;fontColor=#ffffff;align=center;verticalAlign=middle;fontStyle=0;fontSize=12;sketch=0;fontFamily=Source Sans 3;fontSource=https%3A%2F%2Ffonts.googleapis.com%2Fcss%3Ffamily%3DSource%2BSans%2B3;" vertex="1" parent="1">
          <mxGeometry x="980" y="175" width="45" height="20" as="geometry" />
        </mxCell>
        <mxCell id="t6Gh8kv-kjOiG83hikIO-41" value="&lt;h1 style=&quot;margin-top: 0px; line-height: 30%;&quot;&gt;&lt;span style=&quot;&quot;&gt;&lt;font style=&quot;font-size: 10px;&quot; color=&quot;#000000&quot;&gt;Odovzdanie&lt;/font&gt;&lt;/span&gt;&lt;/h1&gt;" style="html=1;whiteSpace=wrap;strokeColor=none;fillColor=#BBBBBB;labelPosition=center;verticalLabelPosition=middle;verticalAlign=top;align=left;fontSize=12;outlineConnect=0;spacingTop=-6;fontColor=#FFFFFF;sketch=0;shape=mxgraph.sitemap.upload;fontFamily=Source Sans 3;fontSource=https%3A%2F%2Ffonts.googleapis.com%2Fcss%3Ffamily%3DSource%2BSans%2B3;" vertex="1" parent="1">
          <mxGeometry x="850" y="320" width="180" height="70" as="geometry" />
        </mxCell>
        <mxCell id="t6Gh8kv-kjOiG83hikIO-42" style="edgeStyle=orthogonalEdgeStyle;rounded=0;orthogonalLoop=1;jettySize=auto;html=1;entryX=0.014;entryY=0.577;entryDx=0;entryDy=0;entryPerimeter=0;fontFamily=Source Sans 3;fontSource=https%3A%2F%2Ffonts.googleapis.com%2Fcss%3Ffamily%3DSource%2BSans%2B3;" edge="1" parent="1" source="t6Gh8kv-kjOiG83hikIO-35" target="t6Gh8kv-kjOiG83hikIO-36">
          <mxGeometry relative="1" as="geometry" />
        </mxCell>
        <mxCell id="t6Gh8kv-kjOiG83hikIO-45" value="" style="sketch=0;verticalLabelPosition=bottom;sketch=0;aspect=fixed;html=1;verticalAlign=top;strokeColor=none;fillColor=#000000;align=center;outlineConnect=0;pointerEvents=1;shape=mxgraph.citrix2.linux_image;fontFamily=Source Sans 3;fontSource=https%3A%2F%2Ffonts.googleapis.com%2Fcss%3Ffamily%3DSource%2BSans%2B3;" vertex="1" parent="1">
          <mxGeometry x="855" y="405" width="14.81" height="20" as="geometry" />
        </mxCell>
        <mxCell id="t6Gh8kv-kjOiG83hikIO-47" value="X" style="rounded=1;fillColor=#0057D8;strokeColor=none;html=1;whiteSpace=wrap;fontColor=#ffffff;align=center;verticalAlign=middle;fontStyle=0;fontSize=12;sketch=0;fontFamily=Source Sans 3;fontSource=https%3A%2F%2Ffonts.googleapis.com%2Fcss%3Ffamily%3DSource%2BSans%2B3;" vertex="1" parent="1">
          <mxGeometry x="957" y="405" width="20" height="20" as="geometry" />
        </mxCell>
        <mxCell id="t6Gh8kv-kjOiG83hikIO-48" value="Odovzdať" style="rounded=1;fillColor=#49B053;strokeColor=none;html=1;whiteSpace=wrap;fontColor=#ffffff;align=center;verticalAlign=middle;fontStyle=0;fontSize=12;sketch=0;fontFamily=Source Sans 3;fontSource=https%3A%2F%2Ffonts.googleapis.com%2Fcss%3Ffamily%3DSource%2BSans%2B3;" vertex="1" parent="1">
          <mxGeometry x="850" y="440" width="86" height="33" as="geometry" />
        </mxCell>
        <mxCell id="t6Gh8kv-kjOiG83hikIO-49" value="&lt;h1 style=&quot;margin-top: 0px; line-height: 50%;&quot;&gt;&lt;font style=&quot;&quot;&gt;&lt;font style=&quot;font-size: 12px;&quot;&gt;Odovzdané riešenia&lt;/font&gt;&lt;br&gt;&lt;font style=&quot;font-size: 10px; font-weight: normal;&quot;&gt;Zatiaľ si nič neodovzdal/a.&lt;/font&gt;&lt;/font&gt;&lt;/h1&gt;" style="text;html=1;whiteSpace=wrap;overflow=hidden;rounded=0;fontFamily=Source Sans 3;fontSource=https%3A%2F%2Ffonts.googleapis.com%2Fcss%3Ffamily%3DSource%2BSans%2B3;" vertex="1" parent="1">
          <mxGeometry x="580" y="390" width="180" height="120" as="geometry" />
        </mxCell>
        <mxCell id="t6Gh8kv-kjOiG83hikIO-50" value="Odovzdanie" style="text;html=1;align=center;verticalAlign=middle;resizable=0;points=[];autosize=1;strokeColor=none;fillColor=none;fontFamily=Source Sans 3;fontSource=https%3A%2F%2Ffonts.googleapis.com%2Fcss%3Ffamily%3DSource%2BSans%2B3;" vertex="1" parent="1">
          <mxGeometry x="900" y="100" width="80" height="30" as="geometry" />
        </mxCell>
        <mxCell id="t6Gh8kv-kjOiG83hikIO-51" value="" style="verticalLabelPosition=bottom;verticalAlign=top;html=1;shadow=0;dashed=0;strokeWidth=1;shape=mxgraph.android.phone2;strokeColor=#000000;fontFamily=Source Sans 3;fontSource=https%3A%2F%2Ffonts.googleapis.com%2Fcss%3Ffamily%3DSource%2BSans%2B3;" vertex="1" parent="1">
          <mxGeometry x="1100" y="130" width="200" height="390" as="geometry" />
        </mxCell>
        <mxCell id="t6Gh8kv-kjOiG83hikIO-52" value="Odovzdané riešenie" style="text;html=1;align=center;verticalAlign=middle;resizable=0;points=[];autosize=1;strokeColor=none;fillColor=none;fontFamily=Source Sans 3;fontSource=https%3A%2F%2Ffonts.googleapis.com%2Fcss%3Ffamily%3DSource%2BSans%2B3;" vertex="1" parent="1">
          <mxGeometry x="1140" y="100" width="120" height="30" as="geometry" />
        </mxCell>
        <mxCell id="t6Gh8kv-kjOiG83hikIO-53" value="&lt;b&gt;&lt;font style=&quot;font-size: 16px;&quot;&gt;KMS&lt;/font&gt;&lt;/b&gt;" style="text;html=1;align=center;verticalAlign=middle;resizable=0;points=[];autosize=1;strokeColor=none;fillColor=none;fontFamily=Source Sans 3;fontSource=https%3A%2F%2Ffonts.googleapis.com%2Fcss%3Ffamily%3DSource%2BSans%2B3;" vertex="1" parent="1">
          <mxGeometry x="1100" y="170" width="60" height="30" as="geometry" />
        </mxCell>
        <mxCell id="t6Gh8kv-kjOiG83hikIO-54" value="" style="edgeStyle=none;orthogonalLoop=1;jettySize=auto;html=1;rounded=0;endArrow=none;endFill=0;exitX=0.039;exitY=0.179;exitDx=0;exitDy=0;exitPerimeter=0;entryX=0.966;entryY=0.177;entryDx=0;entryDy=0;entryPerimeter=0;fontFamily=Source Sans 3;fontSource=https%3A%2F%2Ffonts.googleapis.com%2Fcss%3Ffamily%3DSource%2BSans%2B3;" edge="1" source="t6Gh8kv-kjOiG83hikIO-51" target="t6Gh8kv-kjOiG83hikIO-51" parent="1">
          <mxGeometry width="100" relative="1" as="geometry">
            <mxPoint x="1110" y="200" as="sourcePoint" />
            <mxPoint x="1290" y="199" as="targetPoint" />
            <Array as="points" />
          </mxGeometry>
        </mxCell>
        <mxCell id="t6Gh8kv-kjOiG83hikIO-55" value="&lt;h1 style=&quot;margin-top: 0px; line-height: 50%;&quot;&gt;&lt;font style=&quot;&quot;&gt;&lt;span style=&quot;font-size: 16px;&quot;&gt;Úloha 2&lt;/span&gt;&lt;br&gt;&lt;span style=&quot;color: rgb(55, 65, 81); font-weight: 400; text-align: justify;&quot;&gt;&lt;font style=&quot;font-size: 8px;&quot;&gt;Lorem ipsum dolor sit amet, consectetur adipisicing elit. Aspernatur earum impedit laboriosam nam necessitatibus quas temporibus veritatis. Aliquid animi asperiores.&lt;/font&gt;&lt;/span&gt;&lt;/font&gt;&lt;/h1&gt;" style="text;html=1;whiteSpace=wrap;overflow=hidden;rounded=0;fontFamily=Source Sans 3;fontSource=https%3A%2F%2Ffonts.googleapis.com%2Fcss%3Ffamily%3DSource%2BSans%2B3;" vertex="1" parent="1">
          <mxGeometry x="1110" y="200" width="180" height="120" as="geometry" />
        </mxCell>
        <mxCell id="t6Gh8kv-kjOiG83hikIO-56" value="Späť" style="rounded=1;fillColor=#0057D8;strokeColor=none;html=1;whiteSpace=wrap;fontColor=#ffffff;align=center;verticalAlign=middle;fontStyle=0;fontSize=12;sketch=0;fontFamily=Source Sans 3;fontSource=https%3A%2F%2Ffonts.googleapis.com%2Fcss%3Ffamily%3DSource%2BSans%2B3;" vertex="1" parent="1">
          <mxGeometry x="1240" y="175" width="45" height="20" as="geometry" />
        </mxCell>
        <mxCell id="t6Gh8kv-kjOiG83hikIO-57" value="&lt;h1 style=&quot;margin-top: 0px; line-height: 30%;&quot;&gt;&lt;span style=&quot;&quot;&gt;&lt;font style=&quot;font-size: 10px;&quot; color=&quot;#000000&quot;&gt;Odovzdanie&lt;/font&gt;&lt;/span&gt;&lt;/h1&gt;" style="html=1;whiteSpace=wrap;strokeColor=none;fillColor=#BBBBBB;labelPosition=center;verticalLabelPosition=middle;verticalAlign=top;align=left;fontSize=12;outlineConnect=0;spacingTop=-6;fontColor=#FFFFFF;sketch=0;shape=mxgraph.sitemap.upload;fontFamily=Source Sans 3;fontSource=https%3A%2F%2Ffonts.googleapis.com%2Fcss%3Ffamily%3DSource%2BSans%2B3;" vertex="1" parent="1">
          <mxGeometry x="1110" y="320" width="180" height="70" as="geometry" />
        </mxCell>
        <mxCell id="t6Gh8kv-kjOiG83hikIO-58" value="&lt;h1 style=&quot;margin-top: 0px; line-height: 20%;&quot;&gt;&lt;font style=&quot;&quot;&gt;&lt;font style=&quot;font-size: 12px;&quot;&gt;Odovzdané riešenia&lt;/font&gt;&lt;/font&gt;&lt;/h1&gt;&lt;h1 style=&quot;margin-top: 0px; line-height: 20%;&quot;&gt;&lt;span style=&quot;font-weight: 400; font-size: 10px; background-color: initial;&quot;&gt;&amp;nbsp; - 09.11.2024 18:58&lt;/span&gt;&lt;/h1&gt;" style="text;html=1;whiteSpace=wrap;overflow=hidden;rounded=0;fontFamily=Source Sans 3;fontSource=https%3A%2F%2Ffonts.googleapis.com%2Fcss%3Ffamily%3DSource%2BSans%2B3;" vertex="1" parent="1">
          <mxGeometry x="1110" y="390" width="180" height="120" as="geometry" />
        </mxCell>
        <mxCell id="t6Gh8kv-kjOiG83hikIO-59" style="edgeStyle=orthogonalEdgeStyle;rounded=0;orthogonalLoop=1;jettySize=auto;html=1;entryX=0;entryY=0.837;entryDx=0;entryDy=0;entryPerimeter=0;fontFamily=Source Sans 3;fontSource=https%3A%2F%2Ffonts.googleapis.com%2Fcss%3Ffamily%3DSource%2BSans%2B3;" edge="1" parent="1" source="t6Gh8kv-kjOiG83hikIO-48" target="t6Gh8kv-kjOiG83hikIO-51">
          <mxGeometry relative="1" as="geometry" />
        </mxCell>
        <mxCell id="t6Gh8kv-kjOiG83hikIO-60" value="&lt;h1&gt;User scenario&lt;/h1&gt;" style="text;html=1;align=center;verticalAlign=middle;resizable=0;points=[];autosize=1;strokeColor=none;fillColor=none;fontFamily=Source Sans 3;fontSource=https%3A%2F%2Ffonts.googleapis.com%2Fcss%3Ffamily%3DSource%2BSans%2B3;" vertex="1" parent="1">
          <mxGeometry x="40" y="20" width="160" height="70" as="geometry" />
        </mxCell>
        <mxCell id="t6Gh8kv-kjOiG83hikIO-61" value="&lt;h1 style=&quot;margin-top: 0px; line-height: 60%;&quot;&gt;&lt;span style=&quot;background-color: initial;&quot;&gt;Scenario details&lt;br&gt;&lt;/span&gt;&lt;/h1&gt;&lt;h1 style=&quot;margin-top: 0px; line-height: 60%;&quot;&gt;&lt;span style=&quot;font-size: 12px; font-weight: 400;&quot;&gt;Alžbeta has been working hard on solving the current competition problems. She has solved the problems on a piece of paper and she only has her phone at hand. It&#39;s the last day of the competition and the final countdown is approaching. She wants to submit her solutions without any unforeseen obstacles.&lt;/span&gt;&lt;/h1&gt;&lt;h1 style=&quot;margin-top: 0px; line-height: 60%;&quot;&gt;&lt;font style=&quot;font-size: 14px;&quot;&gt;Before&lt;/font&gt;&lt;/h1&gt;&lt;h1 style=&quot;margin-top: 0px; line-height: 60%;&quot;&gt;&lt;span style=&quot;font-size: 12px; font-weight: 400;&quot;&gt;First of all she needs to figure out what problems she can solve and get points in the competition for. For this she needs to check what her category is. Then she need to navigate to the rules of the competition where she can find the problems she can be awarded points for. Now that she knows what problems to focus on, she can solve them. After solving the problems has to convert photos of her solutions into PDFs and upload them to corresponding problems.&lt;/span&gt;&lt;/h1&gt;&lt;h1 style=&quot;margin-top: 0px; line-height: 60%;&quot;&gt;&lt;span style=&quot;background-color: initial;&quot;&gt;&lt;font style=&quot;font-size: 14px;&quot;&gt;After&lt;/font&gt;&lt;/span&gt;&lt;/h1&gt;&lt;h1 style=&quot;margin-top: 0px; line-height: 60%;&quot;&gt;&lt;span style=&quot;background-color: initial; font-size: 12px; font-weight: 400;&quot;&gt;&lt;/span&gt;&lt;/h1&gt;&lt;h1 style=&quot;margin-top: 0px; line-height: 60%;&quot;&gt;&lt;span style=&quot;font-size: 12px; font-weight: 400;&quot;&gt;The system shows her category and the problems that she can be awarded points for solving are clearly highlighted. Now she know what problems to solve. After solving the problems she can take a picture of each solution directly in the website. The photos get converted to PDFs by the system.&lt;/span&gt;&lt;/h1&gt;" style="text;html=1;whiteSpace=wrap;overflow=hidden;rounded=0;horizontal=1;verticalAlign=top;fontFamily=Source Sans 3;fontSource=https%3A%2F%2Ffonts.googleapis.com%2Fcss%3Ffamily%3DSource%2BSans%2B3;" vertex="1" parent="1">
          <mxGeometry x="40" y="560" width="1250" height="310" as="geometry" />
        </mxCell>
      </root>
    </mxGraphModel>
  </diagram>
  <diagram id="QvRnGk2kD695ulHljKyi" name="Page-2">
    <mxGraphModel dx="2238" dy="2155" grid="1" gridSize="10" guides="1" tooltips="1" connect="1" arrows="1" fold="1" page="1" pageScale="1" pageWidth="1600" pageHeight="900" math="0" shadow="0">
      <root>
        <mxCell id="0" />
        <mxCell id="1" parent="0" />
        <mxCell id="Obu9gdBILj3bbYkPo6EC-1" value="" style="strokeWidth=1;shadow=0;dashed=0;align=center;html=1;shape=mxgraph.mockup.containers.browserWindow;rSize=0;strokeColor=#666666;strokeColor2=#008cff;strokeColor3=#c4c4c4;mainText=,;recursiveResize=0;fontFamily=Source Sans 3;fontSource=https%3A%2F%2Ffonts.googleapis.com%2Fcss%3Ffamily%3DSource%2BSans%2B3;" vertex="1" parent="1">
          <mxGeometry x="500" y="40" width="620" height="410" as="geometry" />
        </mxCell>
        <mxCell id="Obu9gdBILj3bbYkPo6EC-2" value="KMS" style="strokeWidth=1;shadow=0;dashed=0;align=center;html=1;shape=mxgraph.mockup.containers.anchor;fontSize=17;fontColor=#666666;align=left;whiteSpace=wrap;fontFamily=Source Sans 3;fontSource=https%3A%2F%2Ffonts.googleapis.com%2Fcss%3Ffamily%3DSource%2BSans%2B3;" vertex="1" parent="Obu9gdBILj3bbYkPo6EC-1">
          <mxGeometry x="60" y="12" width="110" height="26" as="geometry" />
        </mxCell>
        <mxCell id="Obu9gdBILj3bbYkPo6EC-3" value="https://kms.sk" style="strokeWidth=1;shadow=0;dashed=0;align=center;html=1;shape=mxgraph.mockup.containers.anchor;rSize=0;fontSize=17;fontColor=#666666;align=left;fontFamily=Source Sans 3;fontSource=https%3A%2F%2Ffonts.googleapis.com%2Fcss%3Ffamily%3DSource%2BSans%2B3;" vertex="1" parent="Obu9gdBILj3bbYkPo6EC-1">
          <mxGeometry x="130" y="60" width="250" height="26" as="geometry" />
        </mxCell>
        <mxCell id="QTVFrgOcSVf4IlXI9qRi-3" value="2&amp;nbsp; Úloha 2&lt;span style=&quot;white-space: pre;&quot;&gt;&#x9;&lt;/span&gt;" style="text;strokeColor=#DFDFDF;fillColor=#FFFFFF;align=left;verticalAlign=middle;spacingLeft=10;spacingRight=10;overflow=hidden;points=[[0,0.5],[1,0.5]];portConstraint=eastwest;rotatable=0;whiteSpace=wrap;html=1;shape=mxgraph.bootstrap.bottomButton;rSize=5;fontColor=#333333;fontFamily=Source Sans 3;fontSource=https%3A%2F%2Ffonts.googleapis.com%2Fcss%3Ffamily%3DSource%2BSans%2B3;" vertex="1" parent="Obu9gdBILj3bbYkPo6EC-1">
          <mxGeometry x="10" y="300" width="570" height="30" as="geometry" />
        </mxCell>
        <mxCell id="QTVFrgOcSVf4IlXI9qRi-6" value="&lt;font style=&quot;font-size: 10px;&quot;&gt;Opravovanie&lt;/font&gt;" style="rounded=1;fillColor=#0057D8;strokeColor=none;html=1;whiteSpace=wrap;fontColor=#ffffff;align=center;verticalAlign=middle;fontStyle=0;fontSize=12;sketch=0;fontFamily=Source Sans 3;fontSource=https%3A%2F%2Ffonts.googleapis.com%2Fcss%3Ffamily%3DSource%2BSans%2B3;" vertex="1" parent="Obu9gdBILj3bbYkPo6EC-1">
          <mxGeometry x="510" y="305" width="56" height="20" as="geometry" />
        </mxCell>
        <mxCell id="QTVFrgOcSVf4IlXI9qRi-4" value="3&amp;nbsp; Úloha 3" style="text;strokeColor=#DFDFDF;fillColor=#FFFFFF;align=left;verticalAlign=middle;spacingLeft=10;spacingRight=10;overflow=hidden;points=[[0,0.5],[1,0.5]];portConstraint=eastwest;rotatable=0;whiteSpace=wrap;html=1;shape=mxgraph.bootstrap.bottomButton;rSize=5;fontColor=#333333;fontFamily=Source Sans 3;fontSource=https%3A%2F%2Ffonts.googleapis.com%2Fcss%3Ffamily%3DSource%2BSans%2B3;" vertex="1" parent="1">
          <mxGeometry x="510" y="370" width="570" height="30" as="geometry" />
        </mxCell>
        <mxCell id="2mUjYlN9ZX55ZnDTOVuc-1" value="" style="strokeWidth=1;shadow=0;dashed=0;align=center;html=1;shape=mxgraph.mockup.containers.browserWindow;rSize=0;strokeColor=#666666;strokeColor2=#008cff;strokeColor3=#c4c4c4;mainText=,;recursiveResize=0;fontFamily=Source Sans 3;fontSource=https%3A%2F%2Ffonts.googleapis.com%2Fcss%3Ffamily%3DSource%2BSans%2B3;" vertex="1" parent="1">
          <mxGeometry x="40" y="40" width="380" height="410" as="geometry" />
        </mxCell>
        <mxCell id="2mUjYlN9ZX55ZnDTOVuc-2" value="KMS" style="strokeWidth=1;shadow=0;dashed=0;align=center;html=1;shape=mxgraph.mockup.containers.anchor;fontSize=17;fontColor=#666666;align=left;whiteSpace=wrap;fontFamily=Source Sans 3;fontSource=https%3A%2F%2Ffonts.googleapis.com%2Fcss%3Ffamily%3DSource%2BSans%2B3;" vertex="1" parent="2mUjYlN9ZX55ZnDTOVuc-1">
          <mxGeometry x="60" y="12" width="110" height="26" as="geometry" />
        </mxCell>
        <mxCell id="2mUjYlN9ZX55ZnDTOVuc-3" value="https://kms.sk" style="strokeWidth=1;shadow=0;dashed=0;align=center;html=1;shape=mxgraph.mockup.containers.anchor;rSize=0;fontSize=17;fontColor=#666666;align=left;fontFamily=Source Sans 3;fontSource=https%3A%2F%2Ffonts.googleapis.com%2Fcss%3Ffamily%3DSource%2BSans%2B3;" vertex="1" parent="2mUjYlN9ZX55ZnDTOVuc-1">
          <mxGeometry x="130" y="60" width="250" height="26" as="geometry" />
        </mxCell>
        <mxCell id="2mUjYlN9ZX55ZnDTOVuc-4" value="" style="endArrow=none;html=1;rounded=0;exitX=0;exitY=1;exitDx=0;exitDy=0;fontFamily=Source Sans 3;fontSource=https%3A%2F%2Ffonts.googleapis.com%2Fcss%3Ffamily%3DSource%2BSans%2B3;" edge="1" parent="2mUjYlN9ZX55ZnDTOVuc-1" source="2mUjYlN9ZX55ZnDTOVuc-5">
          <mxGeometry width="50" height="50" relative="1" as="geometry">
            <mxPoint x="80" y="140" as="sourcePoint" />
            <mxPoint x="380" y="140" as="targetPoint" />
          </mxGeometry>
        </mxCell>
        <mxCell id="2mUjYlN9ZX55ZnDTOVuc-5" value="&lt;b&gt;&lt;font style=&quot;font-size: 16px;&quot;&gt;KMS&lt;/font&gt;&lt;/b&gt;" style="text;html=1;align=center;verticalAlign=middle;whiteSpace=wrap;rounded=0;fontFamily=Source Sans 3;fontSource=https%3A%2F%2Ffonts.googleapis.com%2Fcss%3Ffamily%3DSource%2BSans%2B3;" vertex="1" parent="1">
          <mxGeometry x="40" y="150" width="60" height="30" as="geometry" />
        </mxCell>
        <mxCell id="9zzWBpreTBuda8y7T1Pp-1" value="&lt;h1 style=&quot;margin-top: 0px; font-size: 16px;&quot;&gt;&lt;font style=&quot;font-size: 16px;&quot;&gt;Korešpondenčný matematický seminár&lt;/font&gt;&lt;/h1&gt;" style="text;html=1;whiteSpace=wrap;overflow=hidden;rounded=0;fontFamily=Source Sans 3;fontSource=https%3A%2F%2Ffonts.googleapis.com%2Fcss%3Ffamily%3DSource%2BSans%2B3;" vertex="1" parent="1">
          <mxGeometry x="50" y="200" width="360" height="120" as="geometry" />
        </mxCell>
        <mxCell id="9zzWBpreTBuda8y7T1Pp-2" value="Aktuálne zadania" style="rounded=1;fillColor=#0057D8;strokeColor=none;html=1;whiteSpace=wrap;fontColor=#ffffff;align=center;verticalAlign=middle;fontStyle=0;fontSize=12;sketch=0;fontFamily=Source Sans 3;fontSource=https%3A%2F%2Ffonts.googleapis.com%2Fcss%3Ffamily%3DSource%2BSans%2B3;" vertex="1" parent="1">
          <mxGeometry x="55" y="270" width="140" height="33" as="geometry" />
        </mxCell>
        <mxCell id="Obu9gdBILj3bbYkPo6EC-5" value="&lt;b&gt;&lt;font style=&quot;font-size: 16px;&quot;&gt;KMS&lt;/font&gt;&lt;/b&gt;" style="text;html=1;align=center;verticalAlign=middle;whiteSpace=wrap;rounded=0;fontFamily=Source Sans 3;fontSource=https%3A%2F%2Ffonts.googleapis.com%2Fcss%3Ffamily%3DSource%2BSans%2B3;" vertex="1" parent="1">
          <mxGeometry x="500" y="160" width="60" height="30" as="geometry" />
        </mxCell>
        <mxCell id="Obu9gdBILj3bbYkPo6EC-6" value="&lt;h1 style=&quot;margin-top: 0px;&quot;&gt;&lt;font style=&quot;font-size: 13px;&quot;&gt;1. kolo, 1. časť, 46. ročník KMS&lt;/font&gt;&lt;/h1&gt;" style="text;html=1;whiteSpace=wrap;overflow=hidden;rounded=0;fontFamily=Source Sans 3;fontSource=https%3A%2F%2Ffonts.googleapis.com%2Fcss%3Ffamily%3DSource%2BSans%2B3;" vertex="1" parent="1">
          <mxGeometry x="510" y="210" width="360" height="120" as="geometry" />
        </mxCell>
        <mxCell id="Obu9gdBILj3bbYkPo6EC-8" style="edgeStyle=orthogonalEdgeStyle;rounded=0;orthogonalLoop=1;jettySize=auto;html=1;entryX=0.004;entryY=0.639;entryDx=0;entryDy=0;entryPerimeter=0;fontFamily=Source Sans 3;fontSource=https%3A%2F%2Ffonts.googleapis.com%2Fcss%3Ffamily%3DSource%2BSans%2B3;" edge="1" parent="1" source="9zzWBpreTBuda8y7T1Pp-2" target="Obu9gdBILj3bbYkPo6EC-1">
          <mxGeometry relative="1" as="geometry" />
        </mxCell>
        <mxCell id="Obu9gdBILj3bbYkPo6EC-4" value="" style="endArrow=none;html=1;rounded=0;fontFamily=Source Sans 3;fontSource=https%3A%2F%2Ffonts.googleapis.com%2Fcss%3Ffamily%3DSource%2BSans%2B3;exitX=1;exitY=0.364;exitDx=0;exitDy=0;exitPerimeter=0;" edge="1" parent="1" source="Obu9gdBILj3bbYkPo6EC-1">
          <mxGeometry width="50" height="50" relative="1" as="geometry">
            <mxPoint x="792.5925925925926" y="190" as="sourcePoint" />
            <mxPoint x="500" y="190" as="targetPoint" />
          </mxGeometry>
        </mxCell>
        <mxCell id="QTVFrgOcSVf4IlXI9qRi-1" value="&lt;b&gt;#&amp;nbsp; Názov&lt;span style=&quot;white-space: pre;&quot;&gt;&#x9;&lt;/span&gt;&lt;span style=&quot;white-space: pre;&quot;&gt;&#x9;&lt;/span&gt;&lt;span style=&quot;white-space: pre;&quot;&gt;&#x9;&lt;/span&gt;&lt;span style=&quot;white-space: pre;&quot;&gt;&#x9;&lt;span style=&quot;white-space: pre;&quot;&gt;&#x9;&lt;/span&gt;&lt;span style=&quot;white-space: pre;&quot;&gt;&#x9;&lt;/span&gt;&lt;span style=&quot;white-space: pre;&quot;&gt;&#x9;&lt;/span&gt;&lt;span style=&quot;white-space: pre;&quot;&gt;&#x9;&lt;/span&gt;&lt;span style=&quot;white-space: pre;&quot;&gt;&#x9;&lt;/span&gt;&lt;span style=&quot;white-space: pre;&quot;&gt;&#x9;&lt;/span&gt;&lt;span style=&quot;white-space: pre;&quot;&gt;&#x9;&lt;/span&gt;&lt;span style=&quot;white-space: pre;&quot;&gt;&#x9;&lt;/span&gt;&lt;span style=&quot;white-space: pre;&quot;&gt;&#x9;&lt;/span&gt;&lt;span style=&quot;white-space: pre;&quot;&gt;&#x9;&lt;/span&gt;&lt;span style=&quot;white-space: pre;&quot;&gt;&#x9;&lt;/span&gt;&lt;span style=&quot;white-space: pre;&quot;&gt;&#x9;&lt;/span&gt;&lt;span style=&quot;white-space: pre;&quot;&gt;&#x9;&lt;/span&gt;&lt;span style=&quot;white-space: pre;&quot;&gt;&#x9;&lt;/span&gt;&lt;span style=&quot;white-space: pre;&quot;&gt;&#x9;&lt;/span&gt;&lt;span style=&quot;white-space: pre;&quot;&gt;&#x9;&lt;/span&gt;&lt;span style=&quot;white-space: pre;&quot;&gt;&#x9;&lt;/span&gt;&lt;span style=&quot;white-space: pre;&quot;&gt;&#x9;&lt;/span&gt;&lt;span style=&quot;white-space: pre;&quot;&gt;&#x9;&lt;/span&gt;&lt;/span&gt;Opravovanie&lt;/b&gt;" style="text;strokeColor=#DFDFDF;fillColor=#FFFFFF;align=left;verticalAlign=middle;spacingLeft=10;spacingRight=10;overflow=hidden;points=[[0,0.5],[1,0.5]];portConstraint=eastwest;rotatable=0;whiteSpace=wrap;html=1;shape=mxgraph.bootstrap.topButton;rSize=5;fontColor=#333333;fontFamily=Source Sans 3;fontSource=https%3A%2F%2Ffonts.googleapis.com%2Fcss%3Ffamily%3DSource%2BSans%2B3;" vertex="1" parent="1">
          <mxGeometry x="510" y="280" width="570" height="30" as="geometry" />
        </mxCell>
        <mxCell id="QTVFrgOcSVf4IlXI9qRi-2" value="1&amp;nbsp; Úloha 1" style="text;strokeColor=#DFDFDF;fillColor=#FFFFFF;align=left;verticalAlign=middle;spacingLeft=10;spacingRight=10;overflow=hidden;points=[[0,0.5],[1,0.5]];portConstraint=eastwest;rotatable=0;whiteSpace=wrap;html=1;rSize=5;fontColor=#333333;fontFamily=Source Sans 3;fontSource=https%3A%2F%2Ffonts.googleapis.com%2Fcss%3Ffamily%3DSource%2BSans%2B3;" vertex="1" parent="1">
          <mxGeometry x="510" y="310" width="570" height="30" as="geometry" />
        </mxCell>
        <mxCell id="QTVFrgOcSVf4IlXI9qRi-5" value="&lt;font style=&quot;font-size: 10px;&quot;&gt;Opravovanie&lt;/font&gt;" style="rounded=1;fillColor=#0057D8;strokeColor=none;html=1;whiteSpace=wrap;fontColor=#ffffff;align=center;verticalAlign=middle;fontStyle=0;fontSize=12;sketch=0;fontFamily=Source Sans 3;fontSource=https%3A%2F%2Ffonts.googleapis.com%2Fcss%3Ffamily%3DSource%2BSans%2B3;" vertex="1" parent="1">
          <mxGeometry x="1010" y="315" width="56" height="20" as="geometry" />
        </mxCell>
        <mxCell id="QTVFrgOcSVf4IlXI9qRi-7" value="&lt;font style=&quot;font-size: 10px;&quot;&gt;Opravovanie&lt;/font&gt;" style="rounded=1;fillColor=#0057D8;strokeColor=none;html=1;whiteSpace=wrap;fontColor=#ffffff;align=center;verticalAlign=middle;fontStyle=0;fontSize=12;sketch=0;fontFamily=Source Sans 3;fontSource=https%3A%2F%2Ffonts.googleapis.com%2Fcss%3Ffamily%3DSource%2BSans%2B3;" vertex="1" parent="1">
          <mxGeometry x="1010" y="375" width="56" height="20" as="geometry" />
        </mxCell>
        <mxCell id="QTVFrgOcSVf4IlXI9qRi-8" value="" style="strokeWidth=1;shadow=0;dashed=0;align=center;html=1;shape=mxgraph.mockup.containers.browserWindow;rSize=0;strokeColor=#666666;strokeColor2=#008cff;strokeColor3=#c4c4c4;mainText=,;recursiveResize=0;fontFamily=Source Sans 3;fontSource=https%3A%2F%2Ffonts.googleapis.com%2Fcss%3Ffamily%3DSource%2BSans%2B3;" vertex="1" parent="1">
          <mxGeometry x="1680" y="40" width="620" height="410" as="geometry" />
        </mxCell>
        <mxCell id="QTVFrgOcSVf4IlXI9qRi-9" value="KMS" style="strokeWidth=1;shadow=0;dashed=0;align=center;html=1;shape=mxgraph.mockup.containers.anchor;fontSize=17;fontColor=#666666;align=left;whiteSpace=wrap;fontFamily=Source Sans 3;fontSource=https%3A%2F%2Ffonts.googleapis.com%2Fcss%3Ffamily%3DSource%2BSans%2B3;" vertex="1" parent="QTVFrgOcSVf4IlXI9qRi-8">
          <mxGeometry x="60" y="12" width="110" height="26" as="geometry" />
        </mxCell>
        <mxCell id="QTVFrgOcSVf4IlXI9qRi-10" value="https://kms.sk" style="strokeWidth=1;shadow=0;dashed=0;align=center;html=1;shape=mxgraph.mockup.containers.anchor;rSize=0;fontSize=17;fontColor=#666666;align=left;fontFamily=Source Sans 3;fontSource=https%3A%2F%2Ffonts.googleapis.com%2Fcss%3Ffamily%3DSource%2BSans%2B3;" vertex="1" parent="QTVFrgOcSVf4IlXI9qRi-8">
          <mxGeometry x="130" y="60" width="250" height="26" as="geometry" />
        </mxCell>
        <mxCell id="QTVFrgOcSVf4IlXI9qRi-11" value="2&amp;nbsp; Alžbeta Potočná&lt;span style=&quot;white-space: pre;&quot;&gt;&#x9;&lt;span style=&quot;white-space: pre;&quot;&gt;&#x9;&lt;/span&gt;&lt;span style=&quot;white-space: pre;&quot;&gt;&#x9;&lt;/span&gt;&lt;span style=&quot;white-space: pre;&quot;&gt;&#x9;&lt;/span&gt;&lt;span style=&quot;white-space: pre;&quot;&gt;&#x9;&lt;/span&gt;&lt;span style=&quot;white-space: pre;&quot;&gt;&#x9;&lt;/span&gt;&lt;span style=&quot;white-space: pre;&quot;&gt;&#x9;&lt;/span&gt;&lt;span style=&quot;white-space: pre;&quot;&gt;&#x9;&lt;/span&gt;&lt;span style=&quot;white-space: pre;&quot;&gt;&#x9;&lt;/span&gt;&lt;span style=&quot;white-space: pre;&quot;&gt;&#x9;&lt;/span&gt;&lt;span style=&quot;white-space: pre;&quot;&gt;&#x9;&lt;/span&gt;&lt;span style=&quot;white-space: pre;&quot;&gt;&#x9;&lt;/span&gt;&lt;span style=&quot;white-space: pre;&quot;&gt;&#x9;&lt;/span&gt;&lt;span style=&quot;white-space: pre;&quot;&gt;&#x9;&lt;/span&gt;&lt;span style=&quot;white-space: pre;&quot;&gt;&#x9;&lt;/span&gt;&lt;span style=&quot;white-space: pre;&quot;&gt;&#x9;&lt;/span&gt;&lt;span style=&quot;white-space: pre;&quot;&gt;&#x9;&lt;/span&gt;?/20&lt;/span&gt;" style="text;strokeColor=#DFDFDF;fillColor=#FFFFFF;align=left;verticalAlign=middle;spacingLeft=10;spacingRight=10;overflow=hidden;points=[[0,0.5],[1,0.5]];portConstraint=eastwest;rotatable=0;whiteSpace=wrap;html=1;shape=mxgraph.bootstrap.bottomButton;rSize=5;fontColor=#333333;fontFamily=Source Sans 3;fontSource=https%3A%2F%2Ffonts.googleapis.com%2Fcss%3Ffamily%3DSource%2BSans%2B3;" vertex="1" parent="QTVFrgOcSVf4IlXI9qRi-8">
          <mxGeometry x="10" y="300" width="570" height="30" as="geometry" />
        </mxCell>
        <mxCell id="ZFKI31m_b-4jSQw2uQUl-1" value="&lt;font style=&quot;font-size: 10px;&quot;&gt;Detail&lt;/font&gt;" style="rounded=1;fillColor=#0057D8;strokeColor=none;html=1;whiteSpace=wrap;fontColor=#ffffff;align=center;verticalAlign=middle;fontStyle=0;fontSize=12;sketch=0;fontFamily=Source Sans 3;fontSource=https%3A%2F%2Ffonts.googleapis.com%2Fcss%3Ffamily%3DSource%2BSans%2B3;" vertex="1" parent="QTVFrgOcSVf4IlXI9qRi-8">
          <mxGeometry x="490" y="305" width="56" height="20" as="geometry" />
        </mxCell>
        <mxCell id="QTVFrgOcSVf4IlXI9qRi-13" value="3&amp;nbsp; Juraj Mokrý&lt;span style=&quot;white-space: pre;&quot;&gt;&#x9;&lt;/span&gt;&lt;span style=&quot;white-space: pre;&quot;&gt;&#x9;&lt;/span&gt;&lt;span style=&quot;white-space: pre;&quot;&gt;&#x9;&lt;/span&gt;&lt;span style=&quot;white-space: pre;&quot;&gt;&#x9;&lt;/span&gt;&lt;span style=&quot;white-space: pre;&quot;&gt;&#x9;&lt;/span&gt;&lt;span style=&quot;white-space: pre;&quot;&gt;&#x9;&lt;/span&gt;&lt;span style=&quot;white-space: pre;&quot;&gt;&#x9;&lt;/span&gt;&lt;span style=&quot;white-space: pre;&quot;&gt;&#x9;&lt;/span&gt;&lt;span style=&quot;white-space: pre;&quot;&gt;&#x9;&lt;/span&gt;&lt;span style=&quot;white-space: pre;&quot;&gt;&#x9;&lt;/span&gt;&lt;span style=&quot;white-space: pre;&quot;&gt;&#x9;&lt;/span&gt;&lt;span style=&quot;white-space: pre;&quot;&gt;&#x9;&lt;/span&gt;&lt;span style=&quot;white-space: pre;&quot;&gt;&#x9;&lt;/span&gt;&lt;span style=&quot;white-space: pre;&quot;&gt;&#x9;&lt;/span&gt;&lt;span style=&quot;white-space: pre;&quot;&gt;&#x9;&lt;/span&gt;&lt;span style=&quot;white-space: pre;&quot;&gt;&#x9;&lt;/span&gt;&lt;span style=&quot;white-space: pre;&quot;&gt;&#x9;&lt;/span&gt;&lt;span style=&quot;white-space: pre;&quot;&gt;&#x9;&lt;/span&gt;20/20" style="text;strokeColor=#DFDFDF;fillColor=#FFFFFF;align=left;verticalAlign=middle;spacingLeft=10;spacingRight=10;overflow=hidden;points=[[0,0.5],[1,0.5]];portConstraint=eastwest;rotatable=0;whiteSpace=wrap;html=1;shape=mxgraph.bootstrap.bottomButton;rSize=5;fontColor=#333333;fontFamily=Source Sans 3;fontSource=https%3A%2F%2Ffonts.googleapis.com%2Fcss%3Ffamily%3DSource%2BSans%2B3;" vertex="1" parent="1">
          <mxGeometry x="1690" y="370" width="570" height="30" as="geometry" />
        </mxCell>
        <mxCell id="QTVFrgOcSVf4IlXI9qRi-14" value="&lt;b&gt;&lt;font style=&quot;font-size: 16px;&quot;&gt;KMS&lt;/font&gt;&lt;/b&gt;" style="text;html=1;align=center;verticalAlign=middle;whiteSpace=wrap;rounded=0;fontFamily=Source Sans 3;fontSource=https%3A%2F%2Ffonts.googleapis.com%2Fcss%3Ffamily%3DSource%2BSans%2B3;" vertex="1" parent="1">
          <mxGeometry x="1680" y="160" width="60" height="30" as="geometry" />
        </mxCell>
        <mxCell id="QTVFrgOcSVf4IlXI9qRi-15" value="&lt;h1 style=&quot;margin-top: 0px; font-size: 16px;&quot;&gt;&lt;font style=&quot;font-size: 16px;&quot;&gt;Odovzdané riešenia&lt;/font&gt;&lt;/h1&gt;" style="text;html=1;whiteSpace=wrap;overflow=hidden;rounded=0;fontFamily=Source Sans 3;fontSource=https%3A%2F%2Ffonts.googleapis.com%2Fcss%3Ffamily%3DSource%2BSans%2B3;" vertex="1" parent="1">
          <mxGeometry x="1690" y="210" width="360" height="120" as="geometry" />
        </mxCell>
        <mxCell id="QTVFrgOcSVf4IlXI9qRi-16" value="" style="endArrow=none;html=1;rounded=0;fontFamily=Source Sans 3;fontSource=https%3A%2F%2Ffonts.googleapis.com%2Fcss%3Ffamily%3DSource%2BSans%2B3;exitX=1;exitY=0.364;exitDx=0;exitDy=0;exitPerimeter=0;" edge="1" source="QTVFrgOcSVf4IlXI9qRi-8" parent="1">
          <mxGeometry width="50" height="50" relative="1" as="geometry">
            <mxPoint x="1972.5925925925926" y="190" as="sourcePoint" />
            <mxPoint x="1680" y="190" as="targetPoint" />
          </mxGeometry>
        </mxCell>
        <mxCell id="QTVFrgOcSVf4IlXI9qRi-17" value="&lt;b&gt;#&amp;nbsp; Autor&lt;span style=&quot;white-space: pre;&quot;&gt;&#x9;&lt;/span&gt;&lt;span style=&quot;white-space: pre;&quot;&gt;&#x9;&lt;/span&gt;&lt;span style=&quot;white-space: pre;&quot;&gt;&#x9;&lt;/span&gt;&lt;span style=&quot;white-space: pre;&quot;&gt;&#x9;&lt;span style=&quot;white-space: pre;&quot;&gt;&#x9;&lt;/span&gt;&lt;span style=&quot;white-space: pre;&quot;&gt;&#x9;&lt;/span&gt;&lt;span style=&quot;white-space: pre;&quot;&gt;&#x9;&lt;/span&gt;&lt;span style=&quot;white-space: pre;&quot;&gt;&#x9;&lt;/span&gt;&lt;span style=&quot;white-space: pre;&quot;&gt;&#x9;&lt;/span&gt;&lt;span style=&quot;white-space: pre;&quot;&gt;&#x9;&lt;/span&gt;&lt;span style=&quot;white-space: pre;&quot;&gt;&#x9;&lt;/span&gt;&lt;span style=&quot;white-space: pre;&quot;&gt;&#x9;&lt;/span&gt;&lt;span style=&quot;white-space: pre;&quot;&gt;&#x9;&lt;/span&gt;&lt;span style=&quot;white-space: pre;&quot;&gt;&#x9;&lt;/span&gt;&lt;span style=&quot;white-space: pre;&quot;&gt;&#x9;&lt;span style=&quot;white-space: pre;&quot;&gt;&#x9;&lt;/span&gt;&lt;span style=&quot;white-space: pre;&quot;&gt;&#x9;&lt;/span&gt;&lt;span style=&quot;white-space: pre;&quot;&gt;&#x9;&lt;/span&gt;&lt;span style=&quot;white-space: pre;&quot;&gt;&#x9;&lt;/span&gt;&lt;/span&gt;Body&lt;span style=&quot;white-space: pre;&quot;&gt;&#x9;&lt;span style=&quot;white-space: pre;&quot;&gt;&#x9;&lt;/span&gt;&lt;/span&gt;&lt;/span&gt;Detail riešenia&lt;/b&gt;" style="text;strokeColor=#DFDFDF;fillColor=#FFFFFF;align=left;verticalAlign=middle;spacingLeft=10;spacingRight=10;overflow=hidden;points=[[0,0.5],[1,0.5]];portConstraint=eastwest;rotatable=0;whiteSpace=wrap;html=1;shape=mxgraph.bootstrap.topButton;rSize=5;fontColor=#333333;fontFamily=Source Sans 3;fontSource=https%3A%2F%2Ffonts.googleapis.com%2Fcss%3Ffamily%3DSource%2BSans%2B3;" vertex="1" parent="1">
          <mxGeometry x="1690" y="280" width="570" height="30" as="geometry" />
        </mxCell>
        <mxCell id="QTVFrgOcSVf4IlXI9qRi-18" value="1&amp;nbsp; Ján Gebuľa&lt;span style=&quot;white-space: pre;&quot;&gt;&#x9;&lt;/span&gt;&lt;span style=&quot;white-space: pre;&quot;&gt;&#x9;&lt;/span&gt;&lt;span style=&quot;white-space: pre;&quot;&gt;&#x9;&lt;/span&gt;&lt;span style=&quot;white-space: pre;&quot;&gt;&#x9;&lt;/span&gt;&lt;span style=&quot;white-space: pre;&quot;&gt;&#x9;&lt;/span&gt;&lt;span style=&quot;white-space: pre;&quot;&gt;&#x9;&lt;/span&gt;&lt;span style=&quot;white-space: pre;&quot;&gt;&#x9;&lt;/span&gt;&lt;span style=&quot;white-space: pre;&quot;&gt;&#x9;&lt;/span&gt;&lt;span style=&quot;white-space: pre;&quot;&gt;&#x9;&lt;/span&gt;&lt;span style=&quot;white-space: pre;&quot;&gt;&#x9;&lt;/span&gt;&lt;span style=&quot;white-space: pre;&quot;&gt;&#x9;&lt;/span&gt;&lt;span style=&quot;white-space: pre;&quot;&gt;&#x9;&lt;/span&gt;&lt;span style=&quot;white-space: pre;&quot;&gt;&#x9;&lt;/span&gt;&lt;span style=&quot;white-space: pre;&quot;&gt;&#x9;&lt;/span&gt;&lt;span style=&quot;white-space: pre;&quot;&gt;&#x9;&lt;/span&gt;&lt;span style=&quot;white-space: pre;&quot;&gt;&#x9;&lt;/span&gt;&lt;span style=&quot;white-space: pre;&quot;&gt;&#x9;&lt;/span&gt;&lt;span style=&quot;white-space: pre;&quot;&gt;&#x9;&lt;/span&gt;?/20" style="text;strokeColor=#DFDFDF;fillColor=#FFFFFF;align=left;verticalAlign=middle;spacingLeft=10;spacingRight=10;overflow=hidden;points=[[0,0.5],[1,0.5]];portConstraint=eastwest;rotatable=0;whiteSpace=wrap;html=1;rSize=5;fontColor=#333333;fontFamily=Source Sans 3;fontSource=https%3A%2F%2Ffonts.googleapis.com%2Fcss%3Ffamily%3DSource%2BSans%2B3;" vertex="1" parent="1">
          <mxGeometry x="1690" y="310" width="570" height="30" as="geometry" />
        </mxCell>
        <mxCell id="QTVFrgOcSVf4IlXI9qRi-19" value="&lt;font style=&quot;font-size: 10px;&quot;&gt;Detail&lt;/font&gt;" style="rounded=1;fillColor=#0057D8;strokeColor=none;html=1;whiteSpace=wrap;fontColor=#ffffff;align=center;verticalAlign=middle;fontStyle=0;fontSize=12;sketch=0;fontFamily=Source Sans 3;fontSource=https%3A%2F%2Ffonts.googleapis.com%2Fcss%3Ffamily%3DSource%2BSans%2B3;" vertex="1" parent="1">
          <mxGeometry x="2170" y="315" width="56" height="20" as="geometry" />
        </mxCell>
        <mxCell id="QTVFrgOcSVf4IlXI9qRi-22" style="edgeStyle=orthogonalEdgeStyle;rounded=0;orthogonalLoop=1;jettySize=auto;html=1;entryX=0.002;entryY=0.694;entryDx=0;entryDy=0;entryPerimeter=0;fontFamily=Source Sans 3;fontSource=https%3A%2F%2Ffonts.googleapis.com%2Fcss%3Ffamily%3DSource%2BSans%2B3;" edge="1" parent="1" source="QTVFrgOcSVf4IlXI9qRi-5" target="QTVFrgOcSVf4IlXI9qRi-8">
          <mxGeometry relative="1" as="geometry" />
        </mxCell>
        <mxCell id="ZFKI31m_b-4jSQw2uQUl-2" value="&lt;font style=&quot;font-size: 10px;&quot;&gt;Detail&lt;/font&gt;" style="rounded=1;fillColor=#0057D8;strokeColor=none;html=1;whiteSpace=wrap;fontColor=#ffffff;align=center;verticalAlign=middle;fontStyle=0;fontSize=12;sketch=0;fontFamily=Source Sans 3;fontSource=https%3A%2F%2Ffonts.googleapis.com%2Fcss%3Ffamily%3DSource%2BSans%2B3;" vertex="1" parent="1">
          <mxGeometry x="2170" y="375" width="56" height="20" as="geometry" />
        </mxCell>
        <mxCell id="ZFKI31m_b-4jSQw2uQUl-3" value="" style="strokeWidth=1;shadow=0;dashed=0;align=center;html=1;shape=mxgraph.mockup.containers.browserWindow;rSize=0;strokeColor=#666666;strokeColor2=#008cff;strokeColor3=#c4c4c4;mainText=,;recursiveResize=0;fontFamily=Source Sans 3;fontSource=https%3A%2F%2Ffonts.googleapis.com%2Fcss%3Ffamily%3DSource%2BSans%2B3;" vertex="1" parent="1">
          <mxGeometry x="2410" y="40" width="670" height="710" as="geometry" />
        </mxCell>
        <mxCell id="ZFKI31m_b-4jSQw2uQUl-29" value="" style="rounded=0;whiteSpace=wrap;html=1;fontFamily=Source Sans 3;fontSource=https%3A%2F%2Ffonts.googleapis.com%2Fcss%3Ffamily%3DSource%2BSans%2B3;" vertex="1" parent="ZFKI31m_b-4jSQw2uQUl-3">
          <mxGeometry x="10" y="240" width="360" height="450" as="geometry" />
        </mxCell>
        <mxCell id="ZFKI31m_b-4jSQw2uQUl-4" value="KMS" style="strokeWidth=1;shadow=0;dashed=0;align=center;html=1;shape=mxgraph.mockup.containers.anchor;fontSize=17;fontColor=#666666;align=left;whiteSpace=wrap;fontFamily=Source Sans 3;fontSource=https%3A%2F%2Ffonts.googleapis.com%2Fcss%3Ffamily%3DSource%2BSans%2B3;" vertex="1" parent="ZFKI31m_b-4jSQw2uQUl-3">
          <mxGeometry x="60" y="12" width="110" height="26" as="geometry" />
        </mxCell>
        <mxCell id="ZFKI31m_b-4jSQw2uQUl-5" value="https://kms.sk" style="strokeWidth=1;shadow=0;dashed=0;align=center;html=1;shape=mxgraph.mockup.containers.anchor;rSize=0;fontSize=17;fontColor=#666666;align=left;fontFamily=Source Sans 3;fontSource=https%3A%2F%2Ffonts.googleapis.com%2Fcss%3Ffamily%3DSource%2BSans%2B3;" vertex="1" parent="ZFKI31m_b-4jSQw2uQUl-3">
          <mxGeometry x="130" y="60" width="250" height="26" as="geometry" />
        </mxCell>
        <mxCell id="ZFKI31m_b-4jSQw2uQUl-27" value="" style="sketch=0;verticalLabelPosition=bottom;sketch=0;aspect=fixed;html=1;verticalAlign=top;strokeColor=none;fillColor=#000000;align=center;outlineConnect=0;pointerEvents=1;shape=mxgraph.citrix2.linux_image;fontFamily=Source Sans 3;fontSource=https%3A%2F%2Ffonts.googleapis.com%2Fcss%3Ffamily%3DSource%2BSans%2B3;" vertex="1" parent="ZFKI31m_b-4jSQw2uQUl-3">
          <mxGeometry x="23" y="250" width="311.09" height="420" as="geometry" />
        </mxCell>
        <mxCell id="ZFKI31m_b-4jSQw2uQUl-28" value="&lt;h1 style=&quot;margin-top: 0px; font-size: 16px;&quot;&gt;&lt;font style=&quot;font-size: 16px;&quot;&gt;Text&lt;/font&gt;&lt;/h1&gt;" style="text;html=1;whiteSpace=wrap;overflow=hidden;rounded=0;fontFamily=Source Sans 3;fontSource=https%3A%2F%2Ffonts.googleapis.com%2Fcss%3Ffamily%3DSource%2BSans%2B3;" vertex="1" parent="ZFKI31m_b-4jSQw2uQUl-3">
          <mxGeometry x="10" y="210" width="120" height="30" as="geometry" />
        </mxCell>
        <mxCell id="ZFKI31m_b-4jSQw2uQUl-30" value="&lt;h1 style=&quot;margin-top: 0px; font-size: 16px;&quot;&gt;&lt;font style=&quot;font-size: 16px;&quot;&gt;Detaily&lt;/font&gt;&lt;/h1&gt;" style="text;html=1;whiteSpace=wrap;overflow=hidden;rounded=0;fontFamily=Source Sans 3;fontSource=https%3A%2F%2Ffonts.googleapis.com%2Fcss%3Ffamily%3DSource%2BSans%2B3;" vertex="1" parent="ZFKI31m_b-4jSQw2uQUl-3">
          <mxGeometry x="380" y="210" width="120" height="30" as="geometry" />
        </mxCell>
        <mxCell id="ZFKI31m_b-4jSQw2uQUl-38" value="Autor" style="fillColor=none;strokeColor=none;html=1;fontSize=11;fontStyle=0;align=left;fontColor=#596780;fontStyle=1;fontSize=11;fontFamily=Source Sans 3;fontSource=https%3A%2F%2Ffonts.googleapis.com%2Fcss%3Ffamily%3DSource%2BSans%2B3;" vertex="1" parent="ZFKI31m_b-4jSQw2uQUl-3">
          <mxGeometry x="380" y="240" width="240" height="20" as="geometry" />
        </mxCell>
        <mxCell id="ZFKI31m_b-4jSQw2uQUl-39" value="Alžbeta Potočná" style="rounded=1;arcSize=9;fillColor=#F7F8F9;align=left;spacingLeft=5;strokeColor=#DEE1E6;html=1;strokeWidth=2;fontSize=12;fontFamily=Source Sans 3;fontSource=https%3A%2F%2Ffonts.googleapis.com%2Fcss%3Ffamily%3DSource%2BSans%2B3;" vertex="1" parent="ZFKI31m_b-4jSQw2uQUl-3">
          <mxGeometry x="380" y="265" width="270" height="40" as="geometry" />
        </mxCell>
        <mxCell id="ZFKI31m_b-4jSQw2uQUl-40" value="Body" style="fillColor=none;strokeColor=none;html=1;fontSize=11;fontStyle=0;align=left;fontColor=#596780;fontStyle=1;fontSize=11;fontFamily=Source Sans 3;fontSource=https%3A%2F%2Ffonts.googleapis.com%2Fcss%3Ffamily%3DSource%2BSans%2B3;" vertex="1" parent="ZFKI31m_b-4jSQw2uQUl-3">
          <mxGeometry x="380" y="320" width="240" height="20" as="geometry" />
        </mxCell>
        <mxCell id="ZFKI31m_b-4jSQw2uQUl-41" value="11" style="rounded=1;arcSize=9;fillColor=#F7F8F9;align=left;spacingLeft=5;strokeColor=#DEE1E6;html=1;strokeWidth=2;fontSize=12;fontFamily=Source Sans 3;fontSource=https%3A%2F%2Ffonts.googleapis.com%2Fcss%3Ffamily%3DSource%2BSans%2B3;" vertex="1" parent="ZFKI31m_b-4jSQw2uQUl-3">
          <mxGeometry x="380" y="345" width="270" height="40" as="geometry" />
        </mxCell>
        <mxCell id="ZFKI31m_b-4jSQw2uQUl-42" value="Dobrá práca, ale ...&lt;div&gt;&lt;br&gt;&lt;/div&gt;&lt;div&gt;&lt;br&gt;&lt;/div&gt;&lt;div&gt;&lt;br&gt;&lt;/div&gt;&lt;div&gt;- Adrian&lt;/div&gt;" style="rounded=1;arcSize=9;fillColor=#F7F8F9;align=left;spacingLeft=5;strokeColor=#DEE1E6;html=1;strokeWidth=2;fontSize=12;fontFamily=Source Sans 3;fontSource=https%3A%2F%2Ffonts.googleapis.com%2Fcss%3Ffamily%3DSource%2BSans%2B3;" vertex="1" parent="ZFKI31m_b-4jSQw2uQUl-3">
          <mxGeometry x="380" y="425" width="270" height="95" as="geometry" />
        </mxCell>
        <mxCell id="ZFKI31m_b-4jSQw2uQUl-43" value="Komentár" style="fillColor=none;strokeColor=none;html=1;fontSize=11;fontStyle=0;align=left;fontColor=#596780;fontStyle=1;fontSize=11;fontFamily=Source Sans 3;fontSource=https%3A%2F%2Ffonts.googleapis.com%2Fcss%3Ffamily%3DSource%2BSans%2B3;" vertex="1" parent="ZFKI31m_b-4jSQw2uQUl-3">
          <mxGeometry x="380" y="400" width="240" height="20" as="geometry" />
        </mxCell>
        <mxCell id="ZFKI31m_b-4jSQw2uQUl-57" value="Odovzdaný kód" style="fillColor=none;strokeColor=none;html=1;fontSize=11;fontStyle=0;align=left;fontColor=#596780;fontStyle=1;fontSize=11;fontFamily=Source Sans 3;fontSource=https%3A%2F%2Ffonts.googleapis.com%2Fcss%3Ffamily%3DSource%2BSans%2B3;" vertex="1" parent="ZFKI31m_b-4jSQw2uQUl-3">
          <mxGeometry x="380" y="530" width="240" height="20" as="geometry" />
        </mxCell>
        <mxCell id="ZFKI31m_b-4jSQw2uQUl-58" value="Kód" style="rounded=1;fillColor=#0057D8;strokeColor=none;html=1;whiteSpace=wrap;fontColor=#ffffff;align=center;verticalAlign=middle;fontStyle=0;fontSize=12;sketch=0;fontFamily=Source Sans 3;fontSource=https%3A%2F%2Ffonts.googleapis.com%2Fcss%3Ffamily%3DSource%2BSans%2B3;" vertex="1" parent="ZFKI31m_b-4jSQw2uQUl-3">
          <mxGeometry x="380" y="550" width="60" height="20" as="geometry" />
        </mxCell>
        <mxCell id="ZFKI31m_b-4jSQw2uQUl-59" value="Uložiť" style="rounded=1;fillColor=#49B053;strokeColor=none;html=1;whiteSpace=wrap;fontColor=#ffffff;align=center;verticalAlign=middle;fontStyle=0;fontSize=12;sketch=0;fontFamily=Source Sans 3;fontSource=https%3A%2F%2Ffonts.googleapis.com%2Fcss%3Ffamily%3DSource%2BSans%2B3;" vertex="1" parent="ZFKI31m_b-4jSQw2uQUl-3">
          <mxGeometry x="544" y="650" width="106" height="40" as="geometry" />
        </mxCell>
        <mxCell id="ZFKI31m_b-4jSQw2uQUl-9" value="&lt;b&gt;&lt;font style=&quot;font-size: 16px;&quot;&gt;KMS&lt;/font&gt;&lt;/b&gt;" style="text;html=1;align=center;verticalAlign=middle;whiteSpace=wrap;rounded=0;fontFamily=Source Sans 3;fontSource=https%3A%2F%2Ffonts.googleapis.com%2Fcss%3Ffamily%3DSource%2BSans%2B3;" vertex="1" parent="1">
          <mxGeometry x="2410" y="160" width="60" height="30" as="geometry" />
        </mxCell>
        <mxCell id="ZFKI31m_b-4jSQw2uQUl-10" value="&lt;h1 style=&quot;margin-top: 0px; font-size: 16px;&quot;&gt;&lt;font style=&quot;font-size: 16px;&quot;&gt;Detail riešenia&lt;/font&gt;&lt;/h1&gt;" style="text;html=1;whiteSpace=wrap;overflow=hidden;rounded=0;fontFamily=Source Sans 3;fontSource=https%3A%2F%2Ffonts.googleapis.com%2Fcss%3Ffamily%3DSource%2BSans%2B3;" vertex="1" parent="1">
          <mxGeometry x="2420" y="210" width="120" height="30" as="geometry" />
        </mxCell>
        <mxCell id="ZFKI31m_b-4jSQw2uQUl-11" value="" style="endArrow=none;html=1;rounded=0;fontFamily=Source Sans 3;fontSource=https%3A%2F%2Ffonts.googleapis.com%2Fcss%3Ffamily%3DSource%2BSans%2B3;exitX=0.999;exitY=0.21;exitDx=0;exitDy=0;exitPerimeter=0;" edge="1" source="ZFKI31m_b-4jSQw2uQUl-3" parent="1">
          <mxGeometry width="50" height="50" relative="1" as="geometry">
            <mxPoint x="2702.5925925925926" y="190" as="sourcePoint" />
            <mxPoint x="2410" y="190" as="targetPoint" />
          </mxGeometry>
        </mxCell>
        <mxCell id="ZFKI31m_b-4jSQw2uQUl-16" style="edgeStyle=orthogonalEdgeStyle;rounded=0;orthogonalLoop=1;jettySize=auto;html=1;entryX=0.004;entryY=0.768;entryDx=0;entryDy=0;entryPerimeter=0;fontFamily=Source Sans 3;fontSource=https%3A%2F%2Ffonts.googleapis.com%2Fcss%3Ffamily%3DSource%2BSans%2B3;" edge="1" parent="1" source="ZFKI31m_b-4jSQw2uQUl-1" target="ZFKI31m_b-4jSQw2uQUl-3">
          <mxGeometry relative="1" as="geometry" />
        </mxCell>
        <mxCell id="IBDckCivg47rPbDFL9i2-1" value="&lt;h1 style=&quot;margin-top: 0px; line-height: 60%;&quot;&gt;&lt;span style=&quot;background-color: initial;&quot;&gt;Scenario details&lt;br&gt;&lt;/span&gt;&lt;/h1&gt;&lt;h1 style=&quot;margin-top: 0px; line-height: 60%;&quot;&gt;&lt;span style=&quot;font-size: 12px; font-weight: 400;&quot;&gt;Adrian is computer science student. In his free time he is voluneering in non-profit org Trojsten. His task is to grade second problem in current round of the contest. Being a CS student he does not have much time left so he want to get the solutions graded.&lt;/span&gt;&lt;/h1&gt;&lt;h1 style=&quot;margin-top: 0px; line-height: 60%;&quot;&gt;&lt;font style=&quot;font-size: 14px;&quot;&gt;Before&lt;/font&gt;&lt;/h1&gt;&lt;h1 style=&quot;margin-top: 0px; line-height: 60%;&quot;&gt;&lt;span style=&quot;font-size: 12px; font-weight: 400;&quot;&gt;Adrian needs to go trough at least 4 diffrent screens in a administration part of the website that are filled with many unrelated buttons, links and information. When he manages to not get lost in the process he arrives at the grading screen. Here he needs to downloads the submitions and assign them points and optional feedback comment. If Adrian wants to check competitors code submition he needs to find it in a completely different screen.&lt;/span&gt;&lt;/h1&gt;&lt;h1 style=&quot;margin-top: 0px; line-height: 60%;&quot;&gt;&lt;span style=&quot;background-color: initial;&quot;&gt;&lt;font style=&quot;font-size: 14px;&quot;&gt;After&lt;/font&gt;&lt;/span&gt;&lt;/h1&gt;&lt;h1 style=&quot;margin-top: 0px; line-height: 60%;&quot;&gt;&lt;span style=&quot;background-color: initial; font-size: 12px; font-weight: 400;&quot;&gt;&lt;/span&gt;&lt;/h1&gt;&lt;h1 style=&quot;margin-top: 0px; line-height: 60%;&quot;&gt;&lt;span style=&quot;font-size: 12px; font-weight: 400;&quot;&gt;Adrian can go straight to grading screen. Where for each he can see the submition directly without downloading it. He can also see who submitted it, how many points they got for the code submission and also a link to the code submission. In the sidebar he can assign points and optional feedback comment.&lt;/span&gt;&lt;/h1&gt;" style="text;html=1;whiteSpace=wrap;overflow=hidden;rounded=0;horizontal=1;verticalAlign=top;fontFamily=Source Sans 3;fontSource=https%3A%2F%2Ffonts.googleapis.com%2Fcss%3Ffamily%3DSource%2BSans%2B3;" vertex="1" parent="1">
          <mxGeometry x="40" y="560" width="1250" height="310" as="geometry" />
        </mxCell>
      </root>
    </mxGraphModel>
  </diagram>
</mxfile>
